<svg width="81" height="62" viewBox="0 0 81 62" fill="none" xmlns="http://www.w3.org/2000/svg">
<g clip-path="url(#clip0)">
<rect width="81" height="62" fill="white"/>
<path d="M8.39062 43.1172C8.39062 44.5547 8.91406 45.7578 9.96094 46.7266C11.0234 47.7109 12.2344 48.2031 13.5938 48.2031C14.9062 48.2031 16.0625 47.7109 17.0625 46.7266C18.0312 45.7734 18.5312 44.5703 18.5625 43.1172V42.7891L22.3125 41.125V43.1875C22.3125 45.375 21.375 47.4688 19.5 49.4688C17.9062 51.1562 15.8906 52 13.4531 52C11.0156 52 8.9375 51.1406 7.21875 49.4219C5.5 47.7031 4.64062 45.625 4.64062 43.1875V34.5625C4.64062 32.125 5.5 30.0469 7.21875 28.3281C8.9375 26.6094 11.0156 25.75 13.4531 25.75C15.9219 25.75 18.0078 26.6094 19.7109 28.3281C21.4453 30.0469 22.3125 32.125 22.3125 34.5625V34.7969L18.5625 36.4844V34.6328C18.5312 33.1797 18.0312 31.9766 17.0625 31.0234C16.0625 30.0391 14.8828 29.5469 13.5234 29.5469C12.1172 29.5469 10.9062 30.0391 9.89062 31.0234C8.89062 32.0078 8.39062 33.1875 8.39062 34.5625C8.39062 34.5938 8.39062 34.6172 8.39062 34.6328V43.1172ZM35.3438 43.1172C35.3438 44.5547 35.8672 45.7578 36.9141 46.7266C37.9766 47.7109 39.1875 48.2031 40.5469 48.2031C41.8594 48.2031 43.0156 47.7109 44.0156 46.7266C44.9844 45.7734 45.4844 44.5703 45.5156 43.1172V34.6328C45.4844 33.1797 44.9844 31.9766 44.0156 31.0234C43.0156 30.0391 41.7656 29.5469 40.2656 29.5469C38.9531 29.5469 37.8047 30.0391 36.8203 31.0234C35.8516 31.9922 35.3594 33.1484 35.3438 34.4922V34.6328V43.1172ZM49.2656 16.5859V43.1875C49.2656 45.625 48.3984 47.7031 46.6641 49.4219C44.9297 51.1406 42.8438 52 40.4062 52C37.9688 52 35.8906 51.1406 34.1719 49.4219C32.4531 47.7031 31.5938 45.625 31.5938 43.1875V34.5625C31.5938 32.125 32.4531 30.0469 34.1719 28.3281C35.8906 26.6094 37.9688 25.75 40.4062 25.75C42.3281 25.75 44.0312 26.2812 45.5156 27.3438V18.2266L49.2656 16.5859ZM62.2969 43.1172C62.2969 44.5547 62.8203 45.7578 63.8672 46.7266C64.9297 47.7109 66.1406 48.2031 67.5 48.2031C68.8125 48.2031 69.9688 47.7109 70.9688 46.7266C71.9375 45.7734 72.4375 44.5703 72.4688 43.1172V34.6328C72.4375 33.1797 71.9375 31.9766 70.9688 31.0234C69.9688 30.0391 68.7188 29.5469 67.2188 29.5469C65.9062 29.5469 64.7578 30.0391 63.7734 31.0234C62.8047 31.9922 62.3125 33.1484 62.2969 34.4922V34.6328V43.1172ZM76.2188 16.5859V43.1875C76.2188 45.625 75.3516 47.7031 73.6172 49.4219C71.8828 51.1406 69.7969 52 67.3594 52C64.9219 52 62.8438 51.1406 61.125 49.4219C59.4062 47.7031 58.5469 45.625 58.5469 43.1875V34.5625C58.5469 32.125 59.4062 30.0469 61.125 28.3281C62.8438 26.6094 64.9219 25.75 67.3594 25.75C69.2812 25.75 70.9844 26.2812 72.4688 27.3438V18.2266L76.2188 16.5859Z" fill="black"/>
</g>
<defs>
<clipPath id="clip0">
<rect width="81" height="62" fill="white"/>
</clipPath>
</defs>
</svg>
